<?xml version="1.0" encoding="iso-8859-1"?>
<!-- Uploaded to: SVG Repo, www.svgrepo.com, Generator: SVG Repo Mixer Tools -->
<svg fill="#000000" height="800px" width="800px" version="1.1" id="Layer_1" xmlns="http://www.w3.org/2000/svg" xmlns:xlink="http://www.w3.org/1999/xlink" 
	 viewBox="0 0 512 512" xml:space="preserve">
<g>
	<g>
		<path d="M99.235,257.113v20.599h230.037h5.087c5.233-3.071,10.676-5.724,16.254-7.928c7.26-2.873,14.76-5.004,22.438-6.372v-3.134
			v-3.165H99.235z"/>
	</g>
</g>
<g>
	<g>
		<polygon points="0,5.975 0,81.226 15.669,81.226 31.337,81.226 297.955,81.226 297.955,37.312 297.955,21.644 297.955,5.975 		"/>
	</g>
</g>
<g>
	<g>
		<path d="M455.436,112.564h-15.669H31.337H15.669H0v296.744h270.211c-0.188-2.893-0.282-5.787-0.282-8.649
			c0-2.35,0.063-4.69,0.188-7.02c0.261-5.275,0.836-10.508,1.713-15.669c1.379-8.2,3.499-16.222,6.33-23.984
			c5.985-16.483,15.136-31.766,27.023-44.938h-8.075v0H67.898v-83.274h336.49v33.103v5.118c0.752-0.021,1.494-0.031,2.246-0.031
			c16.953,0,33.437,3.061,48.803,8.931c5.369,2.047,10.602,4.429,15.669,7.155V112.564H455.436z M333.774,193.174H137.32v-31.337
			h196.454V193.174z"/>
	</g>
</g>
<g>
	<g>
		<path d="M329.293,5.975v15.669v15.669v43.914h110.475h15.669h15.669V5.975H329.293z M379.14,37.312v16.734h-20.609V37.312v-3.865
			h20.609V37.312z M411.407,37.312v16.734h-20.599V37.312v-3.865h20.599V37.312z M443.674,54.046h-3.907h-16.692V37.312v-3.865
			h20.599V54.046z"/>
	</g>
</g>
<g>
	<g>
		<polygon points="407.396,395.895 384.321,429.071 430.46,429.071 		"/>
	</g>
</g>
<g>
	<g>
		<path d="M382.128,460.408v42.744h0c0.324,0.073,0.658,0.157,0.982,0.23c0.658,0.146,1.316,0.292,1.985,0.439
			c0.052,0.01,0.115,0.021,0.178,0.031c0.439,0.094,0.877,0.178,1.316,0.261c0.575,0.115,1.139,0.219,1.713,0.324
			c0.825,0.146,1.65,0.272,2.476,0.397c0.115,0.021,0.219,0.042,0.334,0.052c0.679,0.104,1.358,0.198,2.037,0.282
			c0.198,0.021,0.397,0.052,0.595,0.073c0.742,0.094,1.494,0.178,2.246,0.251c0.501,0.052,1.003,0.094,1.504,0.136
			c0.491,0.042,0.971,0.084,1.462,0.115c0.679,0.052,1.368,0.094,2.047,0.125c0.157,0.021,0.303,0.021,0.46,0.031
			c0.804,0.042,1.609,0.073,2.423,0.094h0.198c0.846,0.021,1.692,0.031,2.549,0.031c0.783,0,1.567-0.01,2.35-0.031
			c0.261,0,0.533-0.01,0.794-0.021h0.209c0.669-0.021,1.327-0.052,1.985-0.084c0.125,0,0.24-0.01,0.366-0.021
			c0.595-0.031,1.191-0.063,1.786-0.104c0.073,0,0.136-0.01,0.209-0.021c0.324-0.021,0.637-0.042,0.961-0.073
			c0.575-0.042,1.149-0.094,1.734-0.157c0.272-0.021,0.533-0.052,0.815-0.084c0.073,0,0.157-0.01,0.23-0.021
			c0.554-0.063,1.107-0.125,1.661-0.188c0.815-0.104,1.63-0.219,2.434-0.334c0.031,0,0.073-0.01,0.104-0.021
			c0.324-0.042,0.637-0.094,0.961-0.146c0.313-0.052,0.637-0.104,0.951-0.157c0.783-0.125,1.556-0.261,2.329-0.418
			c0.052-0.01,0.104-0.021,0.157-0.031c0.031-0.01,0.063-0.01,0.094-0.021c0.71-0.136,1.421-0.282,2.121-0.428
			c0.742-0.167,1.473-0.334,2.204-0.501c0.522-0.125,1.045-0.251,1.567-0.386v-42.368H382.128z"/>
	</g>
</g>
<g>
	<g>
		<path d="M511.969,398.12v-0.261c-0.021-0.648-0.042-1.295-0.073-1.943c-0.01-0.23-0.021-0.47-0.031-0.7
			c-0.031-0.616-0.063-1.222-0.115-1.839c-0.01-0.084-0.01-0.167-0.021-0.251c0-0.115-0.01-0.23-0.021-0.345
			c-0.021-0.292-0.042-0.585-0.073-0.877c0-0.063,0-0.125-0.01-0.188c-0.052-0.679-0.115-1.358-0.188-2.037
			c-0.084-0.794-0.178-1.577-0.272-2.361c-0.01-0.052-0.01-0.094-0.021-0.146c0-0.042-0.01-0.084-0.021-0.125
			c-0.073-0.648-0.167-1.295-0.261-1.943c-0.021-0.084-0.031-0.157-0.042-0.24c-0.021-0.198-0.052-0.386-0.084-0.574
			c-0.219-1.442-0.48-2.862-0.763-4.283c-0.021-0.115-0.052-0.24-0.073-0.355c-0.104-0.522-0.209-1.045-0.334-1.567
			c-0.042-0.219-0.084-0.439-0.136-0.658c-0.094-0.397-0.178-0.794-0.282-1.191c-0.146-0.648-0.303-1.274-0.47-1.912
			c-0.209-0.836-0.439-1.682-0.679-2.507c-0.198-0.721-0.418-1.442-0.637-2.152c-0.084-0.261-0.157-0.522-0.24-0.773
			c-0.01-0.052-0.031-0.094-0.042-0.146c-0.198-0.627-0.407-1.254-0.616-1.88c-0.272-0.804-0.554-1.598-0.836-2.392
			c-0.01-0.01-0.01-0.031-0.021-0.042c-0.292-0.804-0.595-1.609-0.919-2.403c-0.313-0.804-0.637-1.588-0.971-2.382
			c-0.324-0.783-0.669-1.567-1.024-2.35c-0.355-0.783-0.71-1.556-1.086-2.319c-0.272-0.574-0.554-1.139-0.836-1.703
			c-0.345-0.689-0.7-1.358-1.055-2.037c-0.094-0.178-0.188-0.345-0.272-0.512c-0.449-0.825-0.909-1.64-1.368-2.455
			c-0.888-1.536-1.797-3.04-2.758-4.523c-0.021-0.021-0.031-0.052-0.042-0.073c-0.397-0.616-0.794-1.212-1.201-1.818
			c-0.042-0.063-0.084-0.125-0.125-0.178c-0.021-0.021-0.031-0.052-0.052-0.073c-0.021-0.031-0.042-0.073-0.073-0.104
			c-0.261-0.407-0.543-0.815-0.836-1.222c-0.031-0.042-0.063-0.084-0.094-0.125c-0.021-0.031-0.042-0.063-0.063-0.094
			c-0.219-0.324-0.439-0.637-0.669-0.951c-0.282-0.397-0.564-0.773-0.857-1.159c-0.48-0.658-0.971-1.306-1.473-1.943
			c-0.606-0.773-1.212-1.546-1.838-2.298c-0.627-0.763-1.264-1.515-1.912-2.256c-0.606-0.7-1.233-1.389-1.859-2.079
			c-0.104-0.115-0.219-0.23-0.324-0.345c-0.491-0.522-0.982-1.045-1.473-1.556c-0.052-0.063-0.115-0.115-0.167-0.178
			c-0.042-0.031-0.073-0.073-0.104-0.104c-0.042-0.042-0.084-0.084-0.115-0.115c-0.01-0.01-0.021-0.021-0.031-0.031
			c-0.167-0.167-0.324-0.334-0.491-0.501c-0.167-0.167-0.324-0.334-0.491-0.491c-0.334-0.345-0.679-0.679-1.024-1.003
			c-0.355-0.345-0.71-0.679-1.065-1.024c-0.355-0.334-0.71-0.669-1.076-1.003c-0.303-0.282-0.616-0.564-0.94-0.846
			c-0.313-0.282-0.627-0.564-0.94-0.846c-0.084-0.063-0.157-0.136-0.24-0.209c-0.052-0.042-0.104-0.094-0.157-0.136
			c-0.721-0.616-1.442-1.222-2.173-1.828c-0.731-0.595-1.462-1.18-2.204-1.755c-0.031-0.031-0.073-0.052-0.104-0.083
			c-0.125-0.094-0.251-0.198-0.386-0.292c-0.481-0.376-0.971-0.742-1.473-1.107c-0.282-0.219-0.574-0.428-0.867-0.627
			c-0.418-0.313-0.825-0.616-1.254-0.898c0-0.01-0.01-0.01-0.01-0.01c-0.303-0.219-0.616-0.439-0.93-0.637
			c-0.491-0.355-1.003-0.7-1.504-1.024c-0.157-0.115-0.324-0.219-0.48-0.313c-0.595-0.397-1.191-0.783-1.797-1.149
			c-0.052-0.042-0.104-0.073-0.157-0.104c-0.084-0.052-0.178-0.115-0.261-0.157c-0.366-0.23-0.742-0.46-1.118-0.689
			s-0.752-0.449-1.128-0.669c-0.01-0.01-0.021-0.01-0.031-0.021c-0.606-0.355-1.212-0.7-1.828-1.045
			c-0.992-0.554-1.995-1.086-3.008-1.609c-0.261-0.136-0.533-0.272-0.804-0.407c-0.554-0.282-1.107-0.554-1.671-0.825
			c-0.031-0.01-0.052-0.031-0.084-0.042c-1.536-0.742-3.092-1.442-4.669-2.11c-0.021-0.01-0.031-0.01-0.052-0.021
			c-0.366-0.157-0.731-0.303-1.097-0.449c-0.575-0.24-1.159-0.48-1.744-0.7c-0.763-0.303-1.525-0.585-2.298-0.867
			c-0.292-0.104-0.585-0.209-0.877-0.303c-0.345-0.125-0.689-0.251-1.045-0.366c-0.345-0.115-0.7-0.24-1.045-0.345
			c-0.877-0.292-1.765-0.564-2.653-0.836c-0.031-0.01-0.052-0.021-0.084-0.021c-0.804-0.251-1.609-0.48-2.423-0.689
			c-0.042-0.01-0.073-0.021-0.115-0.031c-0.073-0.021-0.146-0.042-0.209-0.052c-0.877-0.24-1.765-0.47-2.653-0.679
			c0,0,0-0.01-0.01-0.01c-0.658-0.157-1.327-0.313-1.995-0.449c-0.616-0.136-1.243-0.272-1.87-0.397
			c-0.042-0.01-0.094-0.021-0.136-0.031c-0.021,0-0.042-0.01-0.063-0.01c-0.031-0.01-0.073-0.01-0.104-0.021
			c-0.606-0.115-1.222-0.23-1.828-0.345c-0.616-0.104-1.222-0.209-1.838-0.313l-0.219-0.031c-0.334-0.052-0.658-0.104-0.992-0.157
			c-0.846-0.125-1.682-0.24-2.528-0.345c-0.073-0.01-0.136-0.021-0.209-0.031c-0.71-0.084-1.431-0.167-2.152-0.24
			c-0.71-0.073-1.421-0.136-2.131-0.188c-0.313-0.021-0.627-0.052-0.94-0.073c-0.063-0.01-0.136-0.01-0.198-0.021h-0.052
			c-0.543-0.042-1.086-0.073-1.64-0.104c-0.209-0.01-0.428-0.021-0.637-0.031c-0.794-0.042-1.598-0.073-2.392-0.094h-0.209
			c-0.857-0.021-1.713-0.031-2.57-0.031c-14.06,0-27.472,2.758-39.736,7.751c-10.644,4.345-20.432,10.373-29.008,17.768
			c-0.24,0.198-0.48,0.407-0.721,0.616c-0.616,0.543-1.222,1.097-1.828,1.65c-0.355,0.334-0.71,0.669-1.065,1.003
			c-0.47,0.428-0.94,0.877-1.4,1.337c-0.397,0.387-0.804,0.794-1.191,1.191c-0.021,0.031-0.042,0.052-0.073,0.084
			c-0.209,0.198-0.407,0.397-0.585,0.595c-0.449,0.449-0.877,0.898-1.295,1.358c-0.282,0.292-0.564,0.585-0.825,0.888
			c-0.386,0.407-0.752,0.815-1.118,1.233c-0.292,0.334-0.585,0.669-0.867,1.003c-0.345,0.387-0.689,0.783-1.024,1.191
			c-0.574,0.679-1.128,1.358-1.682,2.058c-0.146,0.178-0.282,0.355-0.428,0.533c-0.376,0.491-0.763,0.982-1.139,1.483
			c-0.752,0.982-1.473,1.974-2.194,2.987c-0.46,0.648-0.909,1.316-1.358,1.985c-0.512,0.763-1.013,1.525-1.504,2.308
			c-0.512,0.804-1.013,1.619-1.504,2.434c-0.407,0.689-0.804,1.379-1.191,2.068c-0.439,0.773-0.867,1.556-1.285,2.329
			c-0.418,0.794-0.825,1.577-1.222,2.371c-0.24,0.47-0.47,0.94-0.7,1.421c-0.23,0.47-0.46,0.951-0.679,1.431
			c-0.178,0.376-0.345,0.752-0.512,1.128c-0.094,0.188-0.178,0.386-0.261,0.575c0,0.01-0.01,0.01-0.01,0.021
			c-0.178,0.386-0.334,0.783-0.512,1.17c-0.198,0.491-0.407,0.982-0.606,1.473c-0.167,0.407-0.345,0.846-0.522,1.264
			c-0.01,0.042-0.021,0.073-0.042,0.115c-0.01,0.031-0.021,0.052-0.031,0.083v0.01c-0.303,0.773-0.595,1.546-0.888,2.319
			c-0.219,0.595-0.428,1.201-0.637,1.807c-0.178,0.522-0.345,1.045-0.522,1.567c-0.376,1.128-0.731,2.277-1.055,3.426
			c-0.209,0.689-0.397,1.379-0.574,2.079c-0.063,0.188-0.115,0.386-0.157,0.575c-0.146,0.564-0.292,1.128-0.418,1.692
			c-0.01,0.031-0.021,0.073-0.031,0.104c-0.063,0.23-0.115,0.47-0.167,0.7v0.01c-0.157,0.616-0.292,1.233-0.428,1.859
			c-0.021,0.094-0.042,0.178-0.052,0.272c-0.073,0.366-0.157,0.731-0.23,1.097c-0.073,0.366-0.157,0.731-0.219,1.097
			c-0.313,1.661-0.595,3.343-0.836,5.045c-0.021,0.188-0.052,0.376-0.084,0.564c-0.01,0.052-0.01,0.115-0.021,0.167
			c-0.063,0.46-0.115,0.93-0.167,1.389c-0.01,0.063-0.021,0.125-0.021,0.188c-0.063,0.418-0.104,0.836-0.146,1.254
			c-0.01,0.094-0.021,0.188-0.031,0.282c-0.063,0.637-0.125,1.274-0.178,1.912c-0.021,0.23-0.042,0.46-0.052,0.7
			c0,0.021,0,0.042-0.01,0.063c-0.031,0.449-0.073,0.898-0.094,1.358c-0.042,0.48-0.063,0.961-0.094,1.452
			c-0.031,0.637-0.063,1.295-0.073,1.943v0.052c-0.01,0.282-0.021,0.564-0.021,0.846c-0.01,0.157-0.01,0.313-0.01,0.47
			c-0.021,0.71-0.031,1.431-0.031,2.152c0,0.71,0.01,1.421,0.031,2.131c0,0.146,0,0.292,0.01,0.439v0.188
			c0,0.146,0,0.282,0.01,0.428c0.021,0.585,0.042,1.17,0.073,1.744c0.021,0.46,0.042,0.909,0.073,1.368v0.084
			c0.042,0.669,0.094,1.348,0.146,2.016c0.01,0.083,0.01,0.167,0.021,0.251c0.073,0.898,0.157,1.797,0.251,2.685
			c2.664,24.903,13.997,47.194,30.92,63.824c0.418,0.407,0.836,0.815,1.264,1.212c0.324,0.313,0.648,0.616,0.982,0.919
			c0.292,0.272,0.585,0.543,0.888,0.815c0.292,0.272,0.595,0.543,0.898,0.804c0.125,0.125,0.261,0.24,0.397,0.355
			c0.021,0.021,0.052,0.042,0.073,0.063c0.01,0.01,0.01,0.01,0.021,0.021c0.063,0.063,0.136,0.115,0.198,0.167
			c0.543,0.48,1.097,0.951,1.65,1.41c0.731,0.616,1.473,1.212,2.225,1.807c0.658,0.522,1.327,1.034,1.995,1.536
			c0.136,0.104,0.282,0.219,0.428,0.324c0.366,0.261,0.721,0.533,1.086,0.794c0.366,0.261,0.721,0.533,1.097,0.783
			c0.721,0.512,1.452,1.013,2.183,1.504c0.366,0.251,0.742,0.491,1.118,0.731c0.366,0.251,0.742,0.48,1.118,0.721
			c0.115,0.073,0.24,0.157,0.366,0.23v-67.605l56.616-81.414l56.585,81.414v66.644c0.679-0.439,1.347-0.888,2.006-1.337
			c0.47-0.324,0.93-0.648,1.4-0.971c0.501-0.355,1.003-0.71,1.494-1.076c0.094-0.073,0.188-0.136,0.282-0.209
			c0.407-0.303,0.815-0.606,1.222-0.909c0.125-0.094,0.24-0.178,0.355-0.272c0.052-0.042,0.104-0.083,0.157-0.125
			c0.742-0.575,1.473-1.159,2.204-1.744c0.418-0.345,0.825-0.679,1.243-1.024c0.825-0.689,1.63-1.4,2.434-2.11
			c0.397-0.355,0.794-0.721,1.191-1.076c0.397-0.366,0.794-0.731,1.18-1.107c0.386-0.366,0.773-0.742,1.159-1.118
			s0.763-0.752,1.139-1.128c0.397-0.407,0.794-0.815,1.191-1.222c0.355-0.366,0.7-0.731,1.034-1.097
			c0.376-0.407,0.752-0.804,1.118-1.212s0.731-0.815,1.097-1.222c0.282-0.334,0.574-0.658,0.846-0.992
			c0.501-0.575,0.982-1.159,1.462-1.744c0.178-0.209,0.355-0.418,0.512-0.637c0.167-0.219,0.345-0.428,0.512-0.637
			c0.178-0.209,0.345-0.428,0.512-0.648c0.042-0.042,0.084-0.094,0.115-0.136c0.031-0.042,0.063-0.084,0.094-0.125
			c0.376-0.48,0.752-0.971,1.118-1.473c0.512-0.679,1.003-1.358,1.494-2.047c0.491-0.689,0.971-1.379,1.442-2.079
			c0.481-0.7,0.951-1.41,1.4-2.12c0.042-0.063,0.084-0.125,0.125-0.188c0.418-0.648,0.825-1.306,1.222-1.974
			c0.439-0.721,0.867-1.442,1.295-2.173v-0.01c0.418-0.742,0.836-1.473,1.233-2.215c0.01-0.01,0.01-0.021,0.01-0.021
			c0.052-0.094,0.104-0.188,0.157-0.292c0.042-0.073,0.084-0.146,0.125-0.219c0.261-0.501,0.533-1.003,0.794-1.515
			c0.063-0.125,0.125-0.251,0.198-0.376c0.742-1.462,1.452-2.946,2.131-4.45c0.355-0.773,0.7-1.556,1.024-2.35
			c0.669-1.577,1.295-3.165,1.891-4.774v-0.01c0.303-0.804,0.585-1.619,0.857-2.434c0.251-0.742,0.491-1.473,0.731-2.225
			c0.021-0.084,0.052-0.167,0.073-0.24c0.261-0.825,0.501-1.65,0.731-2.486c0.24-0.825,0.47-1.661,0.679-2.507
			c0.167-0.627,0.324-1.253,0.47-1.891c0.021-0.104,0.052-0.219,0.073-0.324c0.052-0.23,0.104-0.46,0.157-0.689
			c0.063-0.23,0.104-0.46,0.157-0.7c0.125-0.554,0.24-1.107,0.355-1.661c0-0.021,0.01-0.052,0.01-0.073
			c0.031-0.136,0.052-0.261,0.084-0.397c0.136-0.648,0.251-1.295,0.366-1.953c0.104-0.554,0.198-1.107,0.282-1.661
			c0.042-0.261,0.084-0.522,0.125-0.783c0.021-0.136,0.042-0.272,0.063-0.407s0.042-0.272,0.063-0.407
			c0-0.031,0.01-0.052,0.01-0.084c0.104-0.669,0.198-1.347,0.282-2.026c0.104-0.836,0.198-1.671,0.282-2.507
			c0.073-0.721,0.136-1.442,0.198-2.173c0-0.052,0.01-0.094,0.01-0.146c0.021-0.282,0.042-0.554,0.063-0.836v-0.01
			c0.042-0.606,0.083-1.201,0.115-1.807c0.01-0.209,0.021-0.418,0.031-0.616c0.031-0.606,0.052-1.212,0.073-1.818v-0.198
			c0.01-0.084,0.01-0.167,0.01-0.251c0.01-0.146,0.01-0.282,0.01-0.428c0.021-0.825,0.031-1.65,0.031-2.486
			C512,399.812,511.99,398.966,511.969,398.12z"/>
	</g>
</g>
</svg>